<svg xmlns="http://www.w3.org/2000/svg" width="1920" height="1080" viewBox="0 0 1920 1080">
<defs><radialGradient id="g" cx="50%" cy="35%" r="80%"><stop offset="0" stop-color="#073257"/><stop offset=".5" stop-color="#04172b"/><stop offset="1" stop-color="#01040a"/></radialGradient><linearGradient id="grass" x1="0" y1="0" x2="0" y2="1"><stop offset="0" stop-color="#0a4d2d"/><stop offset="1" stop-color="#03180f"/></linearGradient><filter id="glow"><feGaussianBlur stdDeviation="5" result="b"/><feMerge><feMergeNode in="b"/><feMergeNode in="SourceGraphic"/></feMerge></filter></defs>
<rect width="1920" height="1080" fill="url(#g)"/><path d="M0 610 C420 500 1480 500 1920 610 L1920 790 C1400 690 520 690 0 790 Z" fill="#07101c" opacity=".65"/><path d="M0 690 C520 590 1400 590 1920 690" fill="none" stroke="#0e5f9c" stroke-width="8" opacity=".75"/><path d="M0 740 C560 650 1360 650 1920 740" fill="none" stroke="#d7aa31" stroke-width="5" opacity=".35"/>
<g filter="url(#glow)"><path d="M220 250 L420 120" stroke="#e8f8ff" stroke-width="8" opacity=".8"/><path d="M1700 250 L1500 120" stroke="#e8f8ff" stroke-width="8" opacity=".8"/><path d="M960 260 L960 80" stroke="#e8f8ff" stroke-width="8" opacity=".7"/><path d="M880 270 L800 120" stroke="#d7aa31" stroke-width="7" opacity=".55"/><path d="M1040 270 L1120 120" stroke="#d7aa31" stroke-width="7" opacity=".55"/></g>
<g opacity=".18"><circle cx="70" cy="350" r="13" fill="#00c8ff"/><circle cx="190" cy="380" r="18" fill="#d7aa31"/><circle cx="320" cy="360" r="12" fill="#fff"/><circle cx="630" cy="360" r="15" fill="#00c8ff"/><circle cx="760" cy="330" r="13" fill="#d7aa31"/><circle cx="850" cy="350" r="14" fill="#fff"/><circle cx="1240" cy="360" r="15" fill="#00c8ff"/><circle cx="1370" cy="330" r="13" fill="#d7aa31"/><circle cx="1510" cy="350" r="14" fill="#fff"/><circle cx="1740" cy="360" r="15" fill="#00c8ff"/><circle cx="1840" cy="330" r="13" fill="#d7aa31"/></g>
<path d="M0 690 C530 590 1390 590 1920 690 L1920 1080 L0 1080 Z" fill="url(#grass)"/><g opacity=".35" stroke="#d9ffe8" fill="none"><path d="M170 800 H1750 V1080 H170 Z" stroke-width="5"/><circle cx="960" cy="980" r="105" stroke-width="5"/><path d="M960 800 V1080" stroke-width="4"/></g></svg>